<svg width="24" height="24" viewBox="0 0 24 24" fill="none" xmlns="http://www.w3.org/2000/svg">
<path fill-rule="evenodd" clip-rule="evenodd" d="M13.8724 2.15224C13.4826 2 12.9884 2 12 2C11.0116 2 10.5174 2 10.1276 2.15224C9.60778 2.35523 9.19482 2.74458 8.97953 3.23463C8.88124 3.45834 8.84278 3.7185 8.82773 4.09799C8.80561 4.65568 8.50226 5.17189 7.98964 5.45093C7.47702 5.72996 6.85119 5.71954 6.32788 5.45876C5.97176 5.2813 5.71356 5.18262 5.45893 5.15102C4.90114 5.08178 4.33703 5.22429 3.89069 5.5472C3.55593 5.78938 3.30883 6.1929 2.81463 6.99993C2.32043 7.80697 2.07333 8.21048 2.01826 8.60491C1.94482 9.1308 2.09598 9.66266 2.43847 10.0835C2.5948 10.2756 2.81449 10.437 3.15547 10.639C3.65674 10.936 3.97928 11.4419 3.97925 12C3.97922 12.5581 3.65669 13.0639 3.15547 13.3608C2.81444 13.5629 2.5947 13.7244 2.43837 13.9165C2.09587 14.3373 1.94472 14.8691 2.01816 15.395C2.07323 15.7894 2.32033 16.193 2.81452 17C3.30872 17.807 3.55583 18.2106 3.89059 18.4527C4.33692 18.7756 4.90104 18.9181 5.45883 18.8489C5.71345 18.8173 5.97163 18.7186 6.32771 18.5412C6.85107 18.2804 7.47694 18.27 7.98959 18.549C8.50224 18.8281 8.8056 19.3443 8.82773 19.9021C8.84278 20.2815 8.88124 20.5417 8.97953 20.7654C9.19482 21.2554 9.60778 21.6448 10.1276 21.8478C10.5174 22 11.0116 22 12 22C12.9884 22 13.4826 22 13.8724 21.8478C14.3922 21.6448 14.8051 21.2554 15.0204 20.7654C15.1187 20.5417 15.1572 20.2815 15.1723 19.902C15.1944 19.3443 15.4977 18.8281 16.0103 18.549C16.5229 18.2699 17.1488 18.2804 17.6722 18.5412C18.0283 18.7186 18.2864 18.8172 18.541 18.8488C19.0988 18.9181 19.6629 18.7756 20.1092 18.4527C20.4441 18.2105 20.6911 17.807 21.1853 16.9999C21.6796 16.1929 21.9266 15.7894 21.9818 15.395C22.0551 14.8691 21.904 14.3372 21.5616 13.9164C21.4051 13.7243 21.1855 13.5628 20.8444 13.3608C20.3432 13.0639 20.0207 12.558 20.0207 11.9999C20.0207 11.4418 20.3432 10.9361 20.8444 10.6392C21.1856 10.4371 21.4052 10.2757 21.5617 10.0835C21.9041 9.66273 22.0552 9.13087 21.9819 8.60497C21.9267 8.21055 21.6797 7.80703 21.1855 7C20.6912 6.19297 20.4442 5.78945 20.1093 5.54727C19.663 5.22436 19.0989 5.08185 18.5411 5.15109C18.2865 5.18269 18.0283 5.28136 17.6723 5.4588C17.1489 5.71959 16.523 5.73002 16.0104 5.45096C15.4978 5.17191 15.1944 4.65566 15.1722 4.09794C15.1571 3.71848 15.1187 3.45833 15.0204 3.23463C14.8051 2.74458 14.3922 2.35523 13.8724 2.15224ZM12 15C13.7574 15 15.1819 13.6569 15.1819 12C15.1819 10.3431 13.7574 9 12 9C10.2426 9 8.81805 10.3431 8.81805 12C8.81805 13.6569 10.2426 15 12 15Z" fill="white"/>
</svg>
