<svg width="20" height="21" viewBox="0 0 20 21" fill="none" xmlns="http://www.w3.org/2000/svg">
<path fill-rule="evenodd" clip-rule="evenodd" d="M11.8724 0.65224C11.4826 0.5 10.9884 0.5 9.99999 0.5C9.01157 0.5 8.51736 0.5 8.12757 0.65224C7.60778 0.85523 7.19482 1.24458 6.97953 1.73463C6.88124 1.95834 6.84278 2.2185 6.82773 2.59799C6.80561 3.15568 6.50226 3.67189 5.98964 3.95093C5.47702 4.22996 4.85119 4.21954 4.32788 3.95876C3.97176 3.7813 3.71356 3.68262 3.45893 3.65102C2.90114 3.58178 2.33703 3.72429 1.89069 4.0472C1.55593 4.28938 1.30883 4.6929 0.814628 5.49993C0.320429 6.30697 0.0733344 6.71048 0.0182607 7.10491C-0.0551813 7.6308 0.0959764 8.16266 0.438471 8.5835C0.594797 8.7756 0.814492 8.937 1.15547 9.139C1.65674 9.436 1.97928 9.9419 1.97925 10.5C1.97922 11.0581 1.65669 11.5639 1.15547 11.8608C0.814439 12.0629 0.594702 12.2244 0.438366 12.4165C0.0958712 12.8373 -0.0552759 13.3691 0.0181556 13.895C0.0732292 14.2894 0.320334 14.693 0.814523 15.5C1.30872 16.307 1.55583 16.7106 1.89059 16.9527C2.33692 17.2756 2.90104 17.4181 3.45883 17.3489C3.71345 17.3173 3.97163 17.2186 4.32771 17.0412C4.85107 16.7804 5.47694 16.77 5.98959 17.049C6.50224 17.3281 6.8056 17.8443 6.82773 18.4021C6.84278 18.7815 6.88124 19.0417 6.97953 19.2654C7.19482 19.7554 7.60778 20.1448 8.12757 20.3478C8.51736 20.5 9.01157 20.5 9.99999 20.5C10.9884 20.5 11.4826 20.5 11.8724 20.3478C12.3922 20.1448 12.8051 19.7554 13.0204 19.2654C13.1187 19.0417 13.1572 18.7815 13.1723 18.402C13.1944 17.8443 13.4977 17.3281 14.0103 17.049C14.5229 16.7699 15.1488 16.7804 15.6722 17.0412C16.0283 17.2186 16.2864 17.3172 16.541 17.3488C17.0988 17.4181 17.6629 17.2756 18.1092 16.9527C18.4441 16.7105 18.6911 16.307 19.1853 15.4999C19.6796 14.6929 19.9266 14.2894 19.9818 13.895C20.0551 13.3691 19.904 12.8372 19.5616 12.4164C19.4051 12.2243 19.1855 12.0628 18.8444 11.8608C18.3432 11.5639 18.0207 11.058 18.0207 10.4999C18.0207 9.9418 18.3432 9.4361 18.8444 9.1392C19.1856 8.9371 19.4052 8.7757 19.5617 8.5835C19.9041 8.16273 20.0552 7.63087 19.9819 7.10497C19.9267 6.71055 19.6797 6.30703 19.1855 5.5C18.6912 4.69297 18.4442 4.28945 18.1093 4.04727C17.663 3.72436 17.0989 3.58185 16.5411 3.65109C16.2865 3.68269 16.0283 3.78136 15.6723 3.9588C15.1489 4.21959 14.523 4.23002 14.0104 3.95096C13.4978 3.67191 13.1944 3.15566 13.1722 2.59794C13.1571 2.21848 13.1187 1.95833 13.0204 1.73463C12.8051 1.24458 12.3922 0.85523 11.8724 0.65224ZM9.99999 13.5C11.7574 13.5 13.1819 12.1569 13.1819 10.5C13.1819 8.8431 11.7574 7.5 9.99999 7.5C8.24262 7.5 6.81805 8.8431 6.81805 10.5C6.81805 12.1569 8.24262 13.5 9.99999 13.5Z" fill="white"/>
</svg>
